<svg width="1513" height="280" viewBox="0 0 1513 280" fill="none" xmlns="http://www.w3.org/2000/svg"><path fill-rule="evenodd" clip-rule="evenodd" d="M765.131 49.4278C759.318 49.4278 754.605 54.1406 754.605 59.9542V83.0351C754.605 87.1877 757.971 90.554 762.124 90.554H892.566C896.719 90.554 900.085 87.1877 900.085 83.0351V59.9542C900.085 54.1406 895.372 49.4278 889.559 49.4278H883.922C878.108 49.4278 873.395 54.1406 873.395 59.9542V77.209C873.395 78.0396 872.722 78.7128 871.891 78.7128H782.799C781.968 78.7128 781.295 78.0396 781.295 77.209V59.9542C781.295 54.1406 776.582 49.4278 770.769 49.4278H765.131ZM751.597 59.9542C751.597 52.4796 757.657 46.4202 765.131 46.4202H770.769C778.243 46.4202 784.303 52.4796 784.303 59.9542V75.7053H870.388V59.9542C870.388 52.4796 876.447 46.4202 883.922 46.4202H889.559C897.033 46.4202 903.093 52.4796 903.093 59.9542V83.0351C903.093 88.8487 898.38 93.5616 892.566 93.5616H762.124C756.31 93.5616 751.597 88.8487 751.597 83.0351V59.9542Z" fill="#592321"/><path fill-rule="evenodd" clip-rule="evenodd" d="M766.721 32.3191C766.721 24.8444 772.781 18.785 780.255 18.785H874.435C881.909 18.785 887.969 24.8444 887.969 32.3191V47.7865H884.961V32.3191C884.961 26.5055 880.248 21.7926 874.435 21.7926H780.255C774.442 21.7926 769.729 26.5055 769.729 32.3191V47.7865H766.721V32.3191Z" fill="#592321"/><path fill-rule="evenodd" clip-rule="evenodd" d="M766.446 92.0578C766.446 91.2273 767.119 90.554 767.95 90.554H782.799C783.32 90.554 783.804 90.8239 784.078 91.2672C784.352 91.7106 784.377 92.2642 784.144 92.7303L776.719 107.579C776.465 108.089 775.944 108.41 775.374 108.41H767.95C767.119 108.41 766.446 107.737 766.446 106.907V92.0578ZM769.454 93.5616V105.403H774.445L780.365 93.5616H769.454Z" fill="#592321"/><path fill-rule="evenodd" clip-rule="evenodd" d="M870.612 91.2672C870.886 90.8239 871.37 90.554 871.891 90.554H886.74C887.571 90.554 888.244 91.2273 888.244 92.0578V106.907C888.244 107.737 887.571 108.41 886.74 108.41H879.316C878.746 108.41 878.225 108.089 877.971 107.579L870.546 92.7303C870.313 92.2642 870.338 91.7106 870.612 91.2672ZM874.324 93.5616L880.245 105.403H885.236V93.5616H874.324Z" fill="#592321"/><path fill-rule="evenodd" clip-rule="evenodd" d="M791.822 63.8641C787.669 63.8641 784.303 67.2304 784.303 71.383V75.7053H870.388V71.383C870.388 67.2304 867.021 63.8641 862.869 63.8641H791.822ZM781.295 71.383C781.295 65.5694 786.008 60.8565 791.822 60.8565H862.869C868.682 60.8565 873.395 65.5694 873.395 71.383V77.209C873.395 78.0396 872.722 78.7128 871.891 78.7128H782.799C781.968 78.7128 781.295 78.0396 781.295 77.209V71.383Z" fill="#592321"/><path fill-rule="evenodd" clip-rule="evenodd" d="M1247.24 142.164C1252.47 136.701 1259.7 133.612 1267.27 133.612C1274.55 133.612 1281.55 136.482 1286.74 141.599L1289.48 144.307C1296 144.637 1301.18 150.024 1301.18 156.622V156.771C1301.18 157.601 1300.51 158.274 1299.68 158.274H1234.71C1233.88 158.274 1233.21 157.601 1233.21 156.771C1233.21 150.046 1238.53 144.563 1245.19 144.301L1247.24 142.164ZM1267.27 136.62C1260.52 136.62 1254.07 139.374 1249.41 144.244L1246.93 146.835C1246.65 147.131 1246.25 147.299 1245.84 147.299H1245.69C1240.97 147.299 1237.06 150.75 1236.34 155.267H1298.08C1297.42 150.76 1293.54 147.299 1288.85 147.299C1288.46 147.299 1288.08 147.143 1287.8 146.866L1284.63 143.741C1280 139.178 1273.76 136.62 1267.27 136.62Z" fill="#592321"/><path fill-rule="evenodd" clip-rule="evenodd" d="M1277.9 90.1545C1278.48 90.7483 1278.47 91.7004 1277.87 92.281L1269.15 100.806C1268.86 101.088 1268.7 101.476 1268.7 101.881V135.116C1268.7 135.947 1268.03 136.62 1267.2 136.62C1266.37 136.62 1265.69 135.947 1265.69 135.116V101.881C1265.69 100.667 1266.18 99.5038 1267.05 98.655L1275.77 90.1305C1276.36 89.5499 1277.32 89.5606 1277.9 90.1545Z" fill="#592321"/><path fill-rule="evenodd" clip-rule="evenodd" d="M1252.25 107.034C1252.81 106.421 1253.76 106.378 1254.38 106.938L1268.21 119.569C1268.82 120.129 1268.87 121.08 1268.31 121.694C1267.75 122.307 1266.8 122.35 1266.18 121.79L1252.35 109.159C1251.73 108.599 1251.69 107.647 1252.25 107.034Z" fill="#592321"/><path fill-rule="evenodd" clip-rule="evenodd" d="M1285.14 114.844C1285.71 115.453 1285.67 116.405 1285.06 116.97L1268.22 132.609C1267.61 133.174 1266.66 133.139 1266.09 132.53C1265.53 131.922 1265.56 130.97 1266.17 130.405L1283.02 114.766C1283.62 114.201 1284.58 114.236 1285.14 114.844Z" fill="#592321"/><path fill-rule="evenodd" clip-rule="evenodd" d="M1285.54 82.4872C1285.38 89.7202 1279.55 95.5543 1272.31 95.7137C1272.47 88.4806 1278.31 82.6466 1285.54 82.4872ZM1269.3 96.0178C1269.3 86.8822 1276.71 79.4762 1285.84 79.4762H1287.05C1287.88 79.4762 1288.55 80.1495 1288.55 80.98V82.183C1288.55 91.3187 1281.14 98.7246 1272.01 98.7246H1270.81C1269.98 98.7246 1269.3 98.0514 1269.3 97.2209V96.0178Z" fill="#592321"/><path fill-rule="evenodd" clip-rule="evenodd" d="M1288.25 110.153C1280.77 110.153 1274.72 116.213 1274.72 123.687V125.191H1276.82C1284.3 125.191 1290.35 119.132 1290.35 111.657V110.153H1288.25ZM1271.71 123.687C1271.71 114.552 1279.11 107.146 1288.25 107.146H1291.86C1292.69 107.146 1293.36 107.819 1293.36 108.65V111.657C1293.36 120.793 1285.96 128.199 1276.82 128.199H1273.21C1272.38 128.199 1271.71 127.525 1271.71 126.695V123.687Z" fill="#592321"/><path fill-rule="evenodd" clip-rule="evenodd" d="M1259.08 112.259C1259.08 104.784 1253.02 98.7246 1245.54 98.7246L1243.44 98.7246L1243.44 99.6269C1243.44 107.102 1249.5 113.161 1256.97 113.161L1259.08 113.161L1259.08 112.259ZM1245.54 95.7171C1254.68 95.7171 1262.08 103.123 1262.08 112.259L1262.08 114.665C1262.08 115.495 1261.41 116.168 1260.58 116.168L1256.97 116.168C1247.84 116.168 1240.43 108.763 1240.43 99.6269L1240.43 97.2209C1240.43 96.3903 1241.1 95.7171 1241.93 95.7171L1245.54 95.7171Z" fill="#592321"/><path fill-rule="evenodd" clip-rule="evenodd" d="M500.26 149.74C500.26 148.91 500.934 148.236 501.764 148.236H523.118C523.948 148.236 524.622 148.91 524.622 149.74V171.394C524.622 172.225 523.948 172.898 523.118 172.898H501.764C500.934 172.898 500.26 172.225 500.26 171.394V149.74ZM503.268 151.244V169.891H521.614V151.244H503.268Z" fill="#592321"/><path fill-rule="evenodd" clip-rule="evenodd" d="M468.38 205.079C468.38 204.249 469.054 203.575 469.884 203.575H491.238C492.068 203.575 492.741 204.249 492.741 205.079V226.734C492.741 227.564 492.068 228.237 491.238 228.237H469.884C469.054 228.237 468.38 227.564 468.38 226.734V205.079ZM471.388 206.583V225.23H489.734V206.583H471.388Z" fill="#592321"/><path fill-rule="evenodd" clip-rule="evenodd" d="M533.344 205.079C533.344 204.249 534.017 203.575 534.847 203.575H556.201C557.032 203.575 557.705 204.249 557.705 205.079V226.734C557.705 227.564 557.032 228.237 556.201 228.237H534.847C534.017 228.237 533.344 227.564 533.344 226.734V205.079ZM536.351 206.583V225.23H554.697V206.583H536.351Z" fill="#592321"/><path fill-rule="evenodd" clip-rule="evenodd" d="M511.689 116.055C512.224 115.654 512.959 115.654 513.494 116.055L556.802 148.537C557.181 148.821 557.404 149.267 557.404 149.74V181.921C557.404 182.751 556.731 183.425 555.9 183.425H469.282C468.452 183.425 467.779 182.751 467.779 181.921V149.74C467.779 149.267 468.002 148.821 468.38 148.537L511.689 116.055ZM470.786 150.492V180.417H554.396V150.492L512.591 119.138L470.786 150.492Z" fill="#592321"/><path fill-rule="evenodd" clip-rule="evenodd" d="M500.26 203.876C500.26 203.046 500.934 202.372 501.764 202.372H523.419C524.249 202.372 524.922 203.046 524.922 203.876V236.358C524.922 237.188 524.249 237.862 523.419 237.862H501.764C500.934 237.862 500.26 237.188 500.26 236.358V203.876ZM503.268 205.38V234.854H521.915V205.38H503.268Z" fill="#592321"/><path fill-rule="evenodd" clip-rule="evenodd" d="M456.951 184.628C456.951 182.136 458.971 180.116 461.463 180.116H563.118C565.61 180.116 567.63 182.136 567.63 184.628V236.358C567.63 237.188 566.956 237.862 566.126 237.862H458.455C457.625 237.862 456.951 237.188 456.951 236.358V184.628ZM461.463 183.124C460.632 183.124 459.959 183.797 459.959 184.628V234.854H564.622V184.628C564.622 183.797 563.949 183.124 563.118 183.124H461.463Z" fill="#592321"/><path fill-rule="evenodd" clip-rule="evenodd" d="M478.606 106.431C478.606 105.601 479.279 104.927 480.11 104.927H501.764C502.595 104.927 503.268 105.601 503.268 106.431V125.379H500.26V107.935H481.613V141.319H478.606V106.431Z" fill="#592321"/><path fill-rule="evenodd" clip-rule="evenodd" d="M805.879 154.922C804.052 154.922 802.571 156.403 802.571 158.23V173.268C802.571 175.095 804.052 176.576 805.879 176.576H847.985C849.812 176.576 851.293 175.095 851.293 173.268V158.23C851.293 156.403 849.812 154.922 847.985 154.922H805.879ZM799.563 158.23C799.563 154.742 802.391 151.914 805.879 151.914H847.985C851.473 151.914 854.301 154.742 854.301 158.23V173.268C854.301 176.756 851.473 179.584 847.985 179.584H805.879C802.391 179.584 799.563 176.756 799.563 173.268V158.23Z" fill="#592321"/><path fill-rule="evenodd" clip-rule="evenodd" d="M805.879 203.043C804.052 203.043 802.57 204.524 802.57 206.351V221.389C802.57 223.216 804.052 224.697 805.879 224.697H847.985C849.812 224.697 851.293 223.216 851.293 221.389V206.351C851.293 204.524 849.812 203.043 847.985 203.043H805.879ZM799.563 206.351C799.563 202.863 802.391 200.035 805.879 200.035H847.985C851.473 200.035 854.3 202.863 854.3 206.351V221.389C854.3 224.877 851.473 227.705 847.985 227.705H805.879C802.391 227.705 799.563 224.877 799.563 221.389V206.351Z" fill="#592321"/><path fill-rule="evenodd" clip-rule="evenodd" d="M857.609 203.043C855.782 203.043 854.301 204.524 854.301 206.351V221.389C854.301 223.216 855.782 224.697 857.609 224.697H900.316C902.143 224.697 903.625 223.216 903.625 221.389V206.351C903.625 204.524 902.143 203.043 900.316 203.043H857.609ZM851.293 206.351C851.293 202.863 854.121 200.035 857.609 200.035H900.316C903.804 200.035 906.632 202.863 906.632 206.351V221.389C906.632 224.877 903.804 227.705 900.316 227.705H857.609C854.121 227.705 851.293 224.877 851.293 221.389V206.351Z" fill="#592321"/><path fill-rule="evenodd" clip-rule="evenodd" d="M831.744 179.584C829.917 179.584 828.436 181.065 828.436 182.892V196.727C828.436 198.554 829.917 200.035 831.744 200.035H874.451C876.278 200.035 877.76 198.554 877.76 196.727V182.892C877.76 181.065 876.278 179.584 874.451 179.584H831.744ZM825.428 182.892C825.428 179.404 828.256 176.576 831.744 176.576H874.451C877.939 176.576 880.767 179.404 880.767 182.892V196.727C880.767 200.215 877.939 203.043 874.451 203.043H831.744C828.256 203.043 825.428 200.215 825.428 196.727V182.892Z" fill="#592321"/><path fill-rule="evenodd" clip-rule="evenodd" d="M799.563 178.08C799.563 177.249 800.236 176.576 801.067 176.576H822.12C825.608 176.576 828.435 179.404 828.435 182.892V196.727C828.435 200.215 825.608 203.043 822.12 203.043H801.067C800.236 203.043 799.563 202.369 799.563 201.539V178.08ZM802.57 179.584V200.035H822.12C823.947 200.035 825.428 198.554 825.428 196.727V182.892C825.428 181.065 823.947 179.584 822.12 179.584H802.57Z" fill="#592321"/><path fill-rule="evenodd" clip-rule="evenodd" d="M831.744 227.705C829.917 227.705 828.436 229.186 828.436 231.013V246.051C828.436 247.878 829.917 249.359 831.744 249.359H874.451C876.278 249.359 877.76 247.878 877.76 246.051V231.013C877.76 229.186 876.278 227.705 874.451 227.705H831.744ZM825.428 231.013C825.428 227.525 828.256 224.697 831.744 224.697H874.451C877.939 224.697 880.767 227.525 880.767 231.013V246.051C880.767 249.539 877.939 252.367 874.451 252.367H831.744C828.256 252.367 825.428 249.539 825.428 246.051V231.013Z" fill="#592321"/><path fill-rule="evenodd" clip-rule="evenodd" d="M884.075 227.705C882.248 227.705 880.767 229.186 880.767 231.013V246.051C880.767 247.878 882.248 249.359 884.075 249.359H926.181C928.008 249.359 929.49 247.878 929.49 246.051V231.013C929.49 229.186 928.008 227.705 926.181 227.705H884.075ZM877.76 231.013C877.76 227.525 880.587 224.697 884.075 224.697H926.181C929.669 224.697 932.497 227.525 932.497 231.013V246.051C932.497 249.539 929.669 252.367 926.181 252.367H884.075C880.587 252.367 877.76 249.539 877.76 246.051V231.013Z" fill="#592321"/><path fill-rule="evenodd" clip-rule="evenodd" d="M799.563 226.201C799.563 225.37 800.236 224.697 801.067 224.697H822.12C825.608 224.697 828.435 227.525 828.435 231.013V246.051C828.435 249.539 825.608 252.367 822.12 252.367H801.067C800.236 252.367 799.563 251.693 799.563 250.863V226.201ZM802.57 227.705V249.359H822.12C823.947 249.359 825.428 247.878 825.428 246.051V231.013C825.428 229.186 823.947 227.705 822.12 227.705H802.57Z" fill="#592321"/><path fill-rule="evenodd" clip-rule="evenodd" d="M433.458 55.1183C433.458 54.2878 434.131 53.6145 434.962 53.6145H510.992C511.823 53.6145 512.496 54.2878 512.496 55.1183V65.3564C512.496 66.1869 511.823 66.8602 510.992 66.8602H434.962C434.131 66.8602 433.458 66.1869 433.458 65.3564V55.1183ZM436.466 56.6221V63.8526H509.488V56.6221H436.466Z" fill="#592321"/><path fill-rule="evenodd" clip-rule="evenodd" d="M470.111 -9.53188C466.743 -9.53188 463.785 -7.29188 462.873 -4.04955L446.648 53.6145H499.291L482.593 -4.10254C481.663 -7.31847 478.718 -9.53188 475.371 -9.53188H470.111ZM459.978 -4.86418C461.255 -9.40343 465.395 -12.5394 470.111 -12.5394H475.371C480.057 -12.5394 484.18 -9.44066 485.482 -4.93837L502.736 54.7004C502.867 55.1545 502.778 55.644 502.494 56.0218C502.21 56.3997 501.764 56.622 501.292 56.622H444.662C444.191 56.622 443.748 56.4015 443.464 56.0262C443.179 55.6509 443.087 55.1642 443.215 54.711L459.978 -4.86418Z" fill="#592321"/><path fill-rule="evenodd" clip-rule="evenodd" d="M447.546 42.8514H498.146V45.8589H447.546V42.8514Z" fill="#592321"/><path fill-rule="evenodd" clip-rule="evenodd" d="M450.168 33.6633H495.524V36.6709H450.168V33.6633Z" fill="#592321"/><path fill-rule="evenodd" clip-rule="evenodd" d="M455.411 16.0748H490.28V19.0823H455.411V16.0748Z" fill="#592321"/><path fill-rule="evenodd" clip-rule="evenodd" d="M487.659 9.63175H457.771V6.62419H487.659V9.63175Z" fill="#592321"/><path fill-rule="evenodd" clip-rule="evenodd" d="M949.333 -18.8668C949.333 -19.6973 950.007 -20.3706 950.837 -20.3706H1005.57C1006.41 -20.3706 1007.08 -19.6973 1007.08 -18.8668V111.06C1007.08 111.89 1006.41 112.564 1005.57 112.564H950.837C950.007 112.564 949.333 111.89 949.333 111.06V-18.8668ZM952.341 -17.363V109.556H1004.07V-17.363H952.341Z" fill="#592321"/><path fill-rule="evenodd" clip-rule="evenodd" d="M960.161 -8.03957C960.161 -8.87008 960.834 -9.54335 961.664 -9.54335H972.492C973.322 -9.54335 973.995 -8.87008 973.995 -8.03957V89.4054C973.995 90.2359 973.322 90.9092 972.492 90.9092H961.664C960.834 90.9092 960.161 90.2359 960.161 89.4054V-8.03957ZM963.168 -6.53579V87.9016H970.988V-6.53579H963.168Z" fill="#592321"/><path fill-rule="evenodd" clip-rule="evenodd" d="M981.815 -8.03957C981.815 -8.87008 982.488 -9.54335 983.319 -9.54335H994.146C994.976 -9.54335 995.65 -8.87008 995.65 -8.03957V89.4054C995.65 90.2359 994.976 90.9092 994.146 90.9092H983.319C982.488 90.9092 981.815 90.2359 981.815 89.4054V-8.03957ZM984.822 -6.53579V87.9016H992.642V-6.53579H984.822Z" fill="#592321"/><path fill-rule="evenodd" clip-rule="evenodd" d="M1014.3 67.7509C1014.3 66.9204 1014.97 66.2472 1015.8 66.2472H1026.63C1027.46 66.2472 1028.13 66.9204 1028.13 67.7509V78.2774C1028.13 79.1079 1027.46 79.7812 1026.63 79.7812H1015.8C1014.97 79.7812 1014.3 79.1079 1014.3 78.2774V67.7509ZM1017.3 69.2547V76.7736H1025.12V69.2547H1017.3Z" fill="#592321"/><path fill-rule="evenodd" clip-rule="evenodd" d="M1014.3 90.0069C1014.3 89.1764 1014.97 88.5031 1015.8 88.5031H1026.63C1027.46 88.5031 1028.13 89.1764 1028.13 90.0069V100.533C1028.13 101.364 1027.46 102.037 1026.63 102.037H1015.8C1014.97 102.037 1014.3 101.364 1014.3 100.533V90.0069ZM1017.3 91.5107V99.0296H1025.12V91.5107H1017.3Z" fill="#592321"/><path fill-rule="evenodd" clip-rule="evenodd" d="M1035.35 67.7509C1035.35 66.9204 1036.02 66.2472 1036.85 66.2472H1047.68C1048.51 66.2472 1049.18 66.9204 1049.18 67.7509V78.2774C1049.18 79.1079 1048.51 79.7812 1047.68 79.7812H1036.85C1036.02 79.7812 1035.35 79.1079 1035.35 78.2774V67.7509ZM1038.36 69.2547V76.7736H1046.18V69.2547H1038.36Z" fill="#592321"/><path fill-rule="evenodd" clip-rule="evenodd" d="M1035.35 90.0069C1035.35 89.1764 1036.02 88.5031 1036.85 88.5031H1047.68C1048.51 88.5031 1049.18 89.1764 1049.18 90.0069V100.533C1049.18 101.364 1048.51 102.037 1047.68 102.037H1036.85C1036.02 102.037 1035.35 101.364 1035.35 100.533V90.0069ZM1038.36 91.5107V99.0296H1046.18V91.5107H1038.36Z" fill="#592321"/><path fill-rule="evenodd" clip-rule="evenodd" d="M1057 67.7509C1057 66.9204 1057.68 66.2472 1058.51 66.2472H1069.33C1070.17 66.2472 1070.84 66.9204 1070.84 67.7509V78.2774C1070.84 79.1079 1070.17 79.7812 1069.33 79.7812H1058.51C1057.68 79.7812 1057 79.1079 1057 78.2774V67.7509ZM1060.01 69.2547V76.7736H1067.83V69.2547H1060.01Z" fill="#592321"/><path fill-rule="evenodd" clip-rule="evenodd" d="M1057 90.0069C1057 89.1764 1057.68 88.5031 1058.51 88.5031H1069.33C1070.17 88.5031 1070.84 89.1764 1070.84 90.0069V100.533C1070.84 101.364 1070.17 102.037 1069.33 102.037H1058.51C1057.68 102.037 1057 101.364 1057 100.533V90.0069ZM1060.01 91.5107V99.0296H1067.83V91.5107H1060.01Z" fill="#592321"/><path fill-rule="evenodd" clip-rule="evenodd" d="M1004.07 56.9237C1004.07 56.0932 1004.74 55.42 1005.57 55.42H1080.76C1081.59 55.42 1082.27 56.0932 1082.27 56.9237V111.06C1082.27 111.89 1081.59 112.564 1080.76 112.564H1005.57C1004.74 112.564 1004.07 111.89 1004.07 111.06V56.9237ZM1007.08 58.4275V109.556H1079.26V58.4275H1007.08Z" fill="#592321"/><path fill-rule="evenodd" clip-rule="evenodd" d="M1014.96 -9.89032C1015.38 -10.1695 1015.91 -10.2226 1016.37 -10.0319L1070.51 12.224C1071.07 12.4559 1071.44 13.0052 1071.44 13.6149V56.9237H1068.43V14.6226L1017.3 -6.39696V56.9237H1014.3V-8.64108C1014.3 -9.14261 1014.55 -9.61113 1014.96 -9.89032Z" fill="#592321"/><path fill-rule="evenodd" clip-rule="evenodd" d="M1014.3 13.6149C1014.3 12.7843 1014.97 12.1111 1015.8 12.1111H1037.45C1038.29 12.1111 1038.96 12.7843 1038.96 13.6149V24.4421C1038.96 25.2726 1038.29 25.9459 1037.45 25.9459H1015.8C1014.97 25.9459 1014.3 25.2726 1014.3 24.4421V13.6149ZM1017.3 15.1186V22.9383H1035.95V15.1186H1017.3Z" fill="#592321"/><path fill-rule="evenodd" clip-rule="evenodd" d="M1014.3 35.2693C1014.3 34.4388 1014.97 33.7655 1015.8 33.7655H1037.45C1038.29 33.7655 1038.96 34.4388 1038.96 35.2693V46.0965C1038.96 46.927 1038.29 47.6003 1037.45 47.6003H1015.8C1014.97 47.6003 1014.3 46.927 1014.3 46.0965V35.2693ZM1017.3 36.7731V44.5927H1035.95V36.7731H1017.3Z" fill="#592321"/><path fill-rule="evenodd" clip-rule="evenodd" d="M573.44 16.8072C573.44 15.9767 574.113 15.3034 574.943 15.3034H683.215C684.046 15.3034 684.719 15.9767 684.719 16.8072V53.3491C684.719 54.1796 684.046 54.8528 683.215 54.8528H574.943C574.113 54.8528 573.44 54.1796 573.44 53.3491V16.8072ZM576.447 18.311V51.8453H681.712V18.311H576.447Z" fill="#592321"/><path fill-rule="evenodd" clip-rule="evenodd" d="M598.087 15.9723C598.366 15.5544 598.835 15.3034 599.338 15.3034H623.064C623.616 15.3034 624.123 15.6051 624.386 16.0896C624.649 16.5741 624.626 17.1637 624.326 17.6261L600.599 54.168C600.322 54.5951 599.847 54.8528 599.338 54.8528H574.943C574.389 54.8528 573.879 54.5474 573.617 54.0582C573.356 53.569 573.385 52.9755 573.693 52.5141L598.087 15.9723ZM600.142 18.311L577.755 51.8453H598.521L620.295 18.311H600.142Z" fill="#592321"/><path fill-rule="evenodd" clip-rule="evenodd" d="M658.239 15.9723C658.518 15.5544 658.987 15.3034 659.489 15.3034H683.216C683.767 15.3034 684.274 15.6051 684.537 16.0896C684.8 16.5741 684.777 17.1637 684.477 17.6261L660.751 54.168C660.473 54.5951 659.999 54.8528 659.489 54.8528H635.095C634.54 54.8528 634.03 54.5474 633.769 54.0582C633.507 53.569 633.536 52.9755 633.844 52.5141L658.239 15.9723ZM660.293 18.311L637.907 51.8453H658.673L680.446 18.311H660.293Z" fill="#592321"/><path fill-rule="evenodd" clip-rule="evenodd" d="M585.47 53.3491C585.47 52.5185 586.143 51.8453 586.973 51.8453H599.004C599.834 51.8453 600.507 52.5185 600.507 53.3491V102.072C600.507 102.902 599.834 103.575 599.004 103.575H586.973C586.143 103.575 585.47 102.902 585.47 102.072V53.3491ZM588.477 54.8528V100.568H597.5V54.8528H588.477Z" fill="#592321"/><path fill-rule="evenodd" clip-rule="evenodd" d="M585.47 4.62657C585.47 3.79605 586.143 3.12279 586.973 3.12279H599.004C599.834 3.12279 600.507 3.79605 600.507 4.62657V16.8072C600.507 17.6377 599.834 18.311 599.004 18.311H586.973C586.143 18.311 585.47 17.6377 585.47 16.8072V4.62657ZM588.477 6.13035V15.3034H597.5V6.13035H588.477Z" fill="#592321"/><path fill-rule="evenodd" clip-rule="evenodd" d="M657.651 53.3491C657.651 52.5185 658.324 51.8453 659.155 51.8453H671.185C672.016 51.8453 672.689 52.5185 672.689 53.3491V102.072C672.689 102.902 672.016 103.575 671.185 103.575H659.155C658.324 103.575 657.651 102.902 657.651 102.072V53.3491ZM660.659 54.8528V100.568H669.681V54.8528H660.659Z" fill="#592321"/><path fill-rule="evenodd" clip-rule="evenodd" d="M657.651 4.62657C657.651 3.79605 658.324 3.12279 659.155 3.12279H671.185C672.016 3.12279 672.689 3.79605 672.689 4.62657V16.8072C672.689 17.6377 672.016 18.311 671.185 18.311H659.155C658.324 18.311 657.651 17.6377 657.651 16.8072V4.62657ZM660.659 6.13035V15.3034H669.681V6.13035H660.659Z" fill="#592321"/><path fill-rule="evenodd" clip-rule="evenodd" d="M-17.8103 2.84708C-17.8103 -15.9226 -2.5945 -31.1384 16.1751 -31.1384C34.9448 -31.1384 50.1606 -15.9226 50.1606 2.84708C50.1606 21.6167 34.9448 36.8325 16.1751 36.8325C-2.5945 36.8325 -17.8103 21.6167 -17.8103 2.84708ZM16.1751 -28.1308C-0.933472 -28.1308 -14.8027 -14.2615 -14.8027 2.84708C-14.8027 19.9557 -0.933472 33.825 16.1751 33.825C33.2838 33.825 47.153 19.9557 47.153 2.84708C47.153 -14.2615 33.2838 -28.1308 16.1751 -28.1308Z" fill="#592321"/><path fill-rule="evenodd" clip-rule="evenodd" d="M-8.78767 2.84706C-8.78767 -10.9395 2.38853 -22.1157 16.1751 -22.1157C29.9616 -22.1157 41.1378 -10.9395 41.1378 2.84706C41.1378 16.6336 29.9616 27.8098 16.1751 27.8098C2.38853 27.8098 -8.78767 16.6336 -8.78767 2.84706ZM16.1751 -19.1081C4.04956 -19.1081 -5.78011 -9.27845 -5.78011 2.84706C-5.78011 14.9726 4.04956 24.8023 16.1751 24.8023C28.3006 24.8023 38.1303 14.9726 38.1303 2.84706C38.1303 -9.27845 28.3006 -19.1081 16.1751 -19.1081Z" fill="#592321"/><path fill-rule="evenodd" clip-rule="evenodd" d="M14.6712 4.05008V-13.9953H17.6788V2.5463H30.3106V5.55386H16.175C15.3445 5.55386 14.6712 4.88059 14.6712 4.05008Z" fill="#592321"/><path fill-rule="evenodd" clip-rule="evenodd" d="M361.146 41.8244C361.146 40.9939 361.819 40.3206 362.65 40.3206H377.379C378.21 40.3206 378.883 40.9939 378.883 41.8244V48.3394L383.34 50.919L388.965 47.6639C389.31 47.4638 389.721 47.4095 390.107 47.5128C390.493 47.6162 390.822 47.8688 391.021 48.2148L398.386 61.0012C398.8 61.7198 398.554 62.6379 397.836 63.0533L392.208 66.31L392.208 71.475L397.836 74.7318C398.554 75.1471 398.8 76.0652 398.386 76.7838L391.021 89.5702C390.822 89.9162 390.493 90.1688 390.107 90.2722C389.721 90.3755 389.31 90.3212 388.965 90.1212L383.34 86.866L378.883 89.4455V95.9605C378.883 96.791 378.21 97.4643 377.379 97.4643H362.65C361.819 97.4643 361.146 96.791 361.146 95.9605V89.4455L356.689 86.8659L351.064 90.121C350.719 90.3211 350.308 90.3754 349.922 90.272C349.536 90.1687 349.207 89.9161 349.008 89.5701L341.644 76.7837C341.23 76.0651 341.476 75.147 342.193 74.7316L347.821 71.4749L347.821 66.3099L342.193 63.0531C341.476 62.6378 341.23 61.7197 341.643 61.0011L349.008 48.2147C349.207 47.8687 349.536 47.6161 349.922 47.5127C350.308 47.4094 350.719 47.4637 351.064 47.6637L356.689 50.9189L361.146 48.3394V41.8244ZM364.154 43.3282V49.2066C364.154 49.7433 363.868 50.2393 363.403 50.5081L357.442 53.9579C356.976 54.2276 356.402 54.2276 355.936 53.9579L350.862 51.0216L344.999 61.2018L350.078 64.1412C350.542 64.41 350.828 64.906 350.828 65.4427L350.828 72.3421C350.828 72.8788 350.542 73.3748 350.078 73.6436L344.999 76.583L350.862 86.7632L355.936 83.8269C356.402 83.5572 356.976 83.5572 357.442 83.8269L363.403 87.2768C363.868 87.5456 364.154 88.0416 364.154 88.5783V94.4567H375.875V88.5783C375.875 88.0416 376.161 87.5456 376.626 87.2768L382.587 83.827C383.053 83.5573 383.627 83.5573 384.093 83.827L389.167 86.7633L395.031 76.5831L389.951 73.6437C389.487 73.3749 389.201 72.8789 389.201 72.3422L389.201 65.4428C389.201 64.9061 389.487 64.4101 389.951 64.1413L395.03 61.2019L389.167 51.0217L384.093 53.958C383.627 54.2277 383.053 54.2277 382.587 53.958L376.626 50.5081C376.161 50.2393 375.875 49.7433 375.875 49.2066V43.3282H364.154Z" fill="#592321"/><path fill-rule="evenodd" clip-rule="evenodd" d="M370.015 61.3735C365.862 61.3735 362.496 64.7398 362.496 68.8924C362.496 73.045 365.862 76.4113 370.015 76.4113C374.167 76.4113 377.534 73.045 377.534 68.8924C377.534 64.7398 374.167 61.3735 370.015 61.3735ZM359.488 68.8924C359.488 63.0788 364.201 58.366 370.015 58.366C375.828 58.366 380.541 63.0788 380.541 68.8924C380.541 74.706 375.828 79.4189 370.015 79.4189C364.201 79.4189 359.488 74.706 359.488 68.8924Z" fill="#592321"/><path fill-rule="evenodd" clip-rule="evenodd" d="M659.938 158.491C659.938 157.66 660.611 156.987 661.442 156.987H737.233C738.063 156.987 738.736 157.66 738.736 158.491V191.574C738.736 204.032 728.637 214.131 716.18 214.131H682.495C670.037 214.131 659.938 204.032 659.938 191.574V158.491ZM662.946 159.994V191.574C662.946 202.371 671.698 211.123 682.495 211.123H716.18C726.976 211.123 735.729 202.371 735.729 191.574V159.994H662.946Z" fill="#592321"/><path fill-rule="evenodd" clip-rule="evenodd" d="M677.683 127.513C675.524 127.513 673.773 129.263 673.773 131.423V156.987H681.593V131.423C681.593 129.263 679.842 127.513 677.683 127.513ZM670.766 131.423C670.766 127.602 673.863 124.505 677.683 124.505C681.503 124.505 684.6 127.602 684.6 131.423V158.491C684.6 159.321 683.927 159.994 683.097 159.994H672.269C671.439 159.994 670.766 159.321 670.766 158.491V131.423Z" fill="#592321"/><path fill-rule="evenodd" clip-rule="evenodd" d="M720.992 127.513C718.832 127.513 717.082 129.263 717.082 131.423V156.987H724.902V131.423C724.902 129.263 723.151 127.513 720.992 127.513ZM714.074 131.423C714.074 127.602 717.171 124.505 720.992 124.505C724.812 124.505 727.909 127.602 727.909 131.423V158.491C727.909 159.321 727.236 159.994 726.405 159.994H715.578C714.748 159.994 714.074 159.321 714.074 158.491V131.423Z" fill="#592321"/><path fill-rule="evenodd" clip-rule="evenodd" d="M715.578 192.476H683.096V189.468H715.578V192.476Z" fill="#592321"/><path fill-rule="evenodd" clip-rule="evenodd" d="M715.578 181.649H683.096V178.641H715.578V181.649Z" fill="#592321"/><path fill-rule="evenodd" clip-rule="evenodd" d="M594.975 201.8C594.975 200.969 595.648 200.296 596.479 200.296H616.329C630.447 200.296 641.893 211.741 641.893 225.86V237.89C641.893 247.026 649.299 254.432 658.435 254.432H675.878C685.014 254.432 692.42 247.026 692.42 237.89V223.454C692.42 222.623 693.093 221.95 693.924 221.95H704.751C705.582 221.95 706.255 222.623 706.255 223.454V242.702C706.255 256.821 694.809 268.267 680.691 268.267H653.021C638.902 268.267 627.457 256.821 627.457 242.702V230.973C627.457 221.837 620.051 214.431 610.915 214.431H596.479C595.648 214.431 594.975 213.758 594.975 212.927V201.8ZM597.983 203.303V211.424H610.915C621.712 211.424 630.464 220.176 630.464 230.973V242.702C630.464 255.16 640.563 265.259 653.021 265.259H680.691C693.148 265.259 703.247 255.16 703.247 242.702V224.958H695.428V237.89C695.428 248.687 686.675 257.439 675.878 257.439H658.435C647.638 257.439 638.885 248.687 638.885 237.89V225.86C638.885 213.402 628.786 203.303 616.329 203.303H597.983Z" fill="#592321"/><path fill-rule="evenodd" clip-rule="evenodd" d="M681.593 212.627C681.593 211.796 682.266 211.123 683.096 211.123H715.578C716.409 211.123 717.082 211.796 717.082 212.627V214.431C717.082 220.245 712.369 224.958 706.555 224.958H692.119C686.306 224.958 681.593 220.245 681.593 214.431V212.627ZM684.6 214.131V214.431C684.6 218.584 687.967 221.95 692.119 221.95H706.555C710.708 221.95 714.074 218.584 714.074 214.431V214.131H684.6Z" fill="#592321"/><path fill-rule="evenodd" clip-rule="evenodd" d="M186.153 46.1193C186.715 46.352 187.081 46.9003 187.081 47.5086V174.502C187.081 175.333 186.408 176.006 185.578 176.006H58.5839C57.9757 176.006 57.4274 175.64 57.1946 175.078C56.9619 174.516 57.0905 173.869 57.5206 173.439L184.514 46.4452C184.944 46.0152 185.591 45.8865 186.153 46.1193ZM62.2144 172.999H184.074V51.139L62.2144 172.999Z" fill="#592321"/><path fill-rule="evenodd" clip-rule="evenodd" d="M166.532 94.6276C167.094 94.8604 167.46 95.4087 167.46 96.0169V154.881C167.46 155.712 166.787 156.385 165.956 156.385H107.092C106.484 156.385 105.936 156.018 105.703 155.456C105.47 154.895 105.599 154.248 106.029 153.818L164.893 94.9536C165.323 94.5235 165.97 94.3948 166.532 94.6276ZM110.723 153.377H164.453V99.6474L110.723 153.377Z" fill="#592321"/><path fill-rule="evenodd" clip-rule="evenodd" d="M170.864 73.6186L165.141 67.6232L167.317 65.5466L173.039 71.542L170.864 73.6186Z" fill="#592321"/><path fill-rule="evenodd" clip-rule="evenodd" d="M160.781 83.4293L155.058 77.4339L157.233 75.3573L162.956 81.3527L160.781 83.4293Z" fill="#592321"/><path fill-rule="evenodd" clip-rule="evenodd" d="M150.97 93.24L145.247 87.2446L147.423 85.1679L153.145 91.1633L150.97 93.24Z" fill="#592321"/><path fill-rule="evenodd" clip-rule="evenodd" d="M141.159 103.051L135.436 97.0553L137.612 94.9786L143.335 100.974L141.159 103.051Z" fill="#592321"/><path fill-rule="evenodd" clip-rule="evenodd" d="M131.349 112.861L125.626 106.866L127.801 104.789L133.524 110.785L131.349 112.861Z" fill="#592321"/><path fill-rule="evenodd" clip-rule="evenodd" d="M122.083 122.672L116.36 116.677L118.536 114.6L124.259 120.595L122.083 122.672Z" fill="#592321"/><path fill-rule="evenodd" clip-rule="evenodd" d="M111.727 133.028L106.004 127.032L108.18 124.956L113.903 130.951L111.727 133.028Z" fill="#592321"/><path fill-rule="evenodd" clip-rule="evenodd" d="M101.917 142.293L96.1936 136.298L98.3692 134.221L104.092 140.217L101.917 142.293Z" fill="#592321"/><path fill-rule="evenodd" clip-rule="evenodd" d="M92.106 152.104L86.3831 146.109L88.5586 144.032L94.2815 150.027L92.106 152.104Z" fill="#592321"/><path fill-rule="evenodd" clip-rule="evenodd" d="M82.2953 161.915L76.5724 155.919L78.748 153.843L84.4708 159.838L82.2953 161.915Z" fill="#592321"/><path fill-rule="evenodd" clip-rule="evenodd" d="M111.909 21.7627C112.495 21.1771 113.445 21.1768 114.032 21.762L134.703 42.3627C134.986 42.6447 135.145 43.0278 135.145 43.4273C135.145 43.8268 134.986 44.21 134.704 44.4922L59.6764 119.365C59.0897 119.951 58.1398 119.951 57.5527 119.366L36.8822 98.7653C36.5992 98.4832 36.4401 98.1002 36.44 97.7006C36.4398 97.3011 36.5987 96.9179 36.8815 96.6357L111.909 21.7627ZM112.972 24.9509L40.0733 97.6994L58.6135 116.177L131.512 43.4285L112.972 24.9509Z" fill="#592321"/><path fill-rule="evenodd" clip-rule="evenodd" d="M36.8787 96.6386C37.4649 96.0503 38.4171 96.0487 39.0053 96.635L59.6758 117.236C60.264 117.822 60.2656 118.774 59.6794 119.362L54.5292 124.53C48.2542 130.826 38.0632 130.843 31.7669 124.568C25.4707 118.293 25.4535 108.102 31.7285 101.806L36.8787 96.6386ZM37.9474 99.8268L33.8588 103.929C28.7563 109.049 28.7703 117.336 33.89 122.438C39.0097 127.541 47.2965 127.527 52.3989 122.407L56.4876 118.304L37.9474 99.8268Z" fill="#592321"/><path fill-rule="evenodd" clip-rule="evenodd" d="M139.476 16.3909C139.837 16.7413 139.999 17.2487 139.907 17.7432L135.079 43.8325C134.977 44.3812 134.58 44.8285 134.048 44.9945C133.515 45.1605 132.934 45.0179 132.539 44.624L111.868 24.0232C111.478 23.6342 111.332 23.0628 111.487 22.5341C111.642 22.0054 112.075 21.604 112.613 21.488L138.112 15.9994C138.604 15.8936 139.116 16.0405 139.476 16.3909ZM136.539 19.4144L115.951 23.846L132.641 40.4795L136.539 19.4144Z" fill="#592321"/><path fill-rule="evenodd" clip-rule="evenodd" d="M1183.03 32.8659C1183.08 32.3986 1183.36 31.9851 1183.76 31.7485L1201.05 21.7014C1201.63 21.3628 1202.37 21.453 1202.85 21.9221L1209.76 28.623C1210.22 29.0701 1210.35 29.7605 1210.07 30.3417L1201.42 48.7649C1201.22 49.2047 1200.81 49.5176 1200.33 49.6049C1199.85 49.6923 1199.36 49.5434 1199.01 49.2051L1195.34 45.6452L1181.31 60.1093C1180.74 60.7054 1179.78 60.7199 1179.19 60.1417L1172.28 53.4408C1171.68 52.8625 1171.67 51.9105 1172.25 51.3144L1186.28 36.8503L1183.47 34.1281C1183.13 33.8003 1182.97 33.3332 1183.03 32.8659ZM1186.99 33.3514L1189.45 35.7385C1190.05 36.3168 1190.06 37.2688 1189.48 37.8649L1175.45 52.329L1180.2 56.9359L1194.23 42.4718C1194.81 41.8757 1195.76 41.8612 1196.36 42.4394L1199.6 45.5792L1206.9 30.0346L1201.58 24.8741L1186.99 33.3514Z" fill="#592321"/><path fill-rule="evenodd" clip-rule="evenodd" d="M1122.72 50.6168C1117.78 45.8331 1117.66 37.9572 1122.45 33.0255C1123.45 31.9959 1125.09 31.9708 1126.12 32.9696L1138.29 44.7723C1140.08 46.507 1142.93 46.4635 1144.67 44.6751C1146.4 42.8867 1146.36 40.0306 1144.57 38.2958L1132.4 26.4932C1131.37 25.4944 1131.35 23.8499 1132.35 22.8202C1137.13 17.8885 1145.01 17.7686 1149.94 22.5523L1159.53 31.8541C1164.49 36.6698 1164.9 44.4173 1160.65 49.7067L1184.49 72.824C1189.65 68.4237 1197.4 68.5903 1202.37 73.4061L1211.96 82.7079C1216.89 87.4916 1217.01 95.3675 1212.22 100.299C1211.22 101.329 1209.58 101.354 1208.55 100.355L1196.38 88.5525C1194.59 86.8177 1191.74 86.8612 1190 88.6497C1188.27 90.4381 1188.31 93.2942 1190.1 95.0289L1202.27 106.832C1203.3 107.83 1203.32 109.475 1202.32 110.505C1197.54 115.436 1189.67 115.556 1184.73 110.772L1175.14 101.471C1170.18 96.6549 1169.78 88.9074 1174.02 83.6181L1150.18 60.5007C1145.03 64.9011 1137.27 64.7344 1132.31 59.9186L1122.72 50.6168ZM1124.33 35.4201C1120.99 39.1724 1121.17 44.9265 1124.81 48.458L1134.4 57.7598C1138.48 61.7169 1144.99 61.6176 1148.95 57.5382C1149.62 56.8485 1150.72 56.8317 1151.41 57.5007L1176.98 82.3005C1177.67 82.9695 1177.69 84.0708 1177.02 84.7605C1173.06 88.84 1173.16 95.3548 1177.24 99.3119L1186.83 108.614C1190.47 112.145 1196.23 112.152 1199.87 108.699L1188.01 97.1877C1185.03 94.2965 1184.95 89.5363 1187.84 86.5556C1190.74 83.5749 1195.5 83.5024 1198.48 86.3937L1210.34 97.9047C1213.68 94.1524 1213.5 88.3983 1209.86 84.8667L1200.27 75.5649C1196.19 71.6079 1189.68 71.7071 1185.72 75.7866C1185.05 76.4763 1183.95 76.493 1183.26 75.8241L1157.69 51.0242C1157 50.3553 1156.99 49.2539 1157.66 48.5643C1161.61 44.4848 1161.51 37.9699 1157.43 34.0129L1147.84 24.7111C1144.2 21.1795 1138.45 21.1726 1134.8 24.626L1146.67 36.137C1149.65 39.0283 1149.72 43.7884 1146.83 46.7691C1143.94 49.7498 1139.18 49.8223 1136.2 46.9311L1124.33 35.4201Z" fill="#592321"/><path fill-rule="evenodd" clip-rule="evenodd" d="M1125.51 96.4789C1121.92 100.175 1122.01 106.078 1125.71 109.663C1129.4 113.248 1135.3 113.158 1138.89 109.462L1160.88 86.7943L1147.49 73.8114L1125.51 96.4789ZM1123.61 111.822C1118.72 107.08 1118.6 99.2733 1123.35 94.3849L1146.38 70.6379C1146.96 70.0418 1147.91 70.0273 1148.51 70.6056L1164.05 85.6825C1164.65 86.2608 1164.66 87.2128 1164.08 87.809L1141.05 111.556C1136.31 116.444 1128.5 116.563 1123.61 111.822Z" fill="#592321"/><path fill-rule="evenodd" clip-rule="evenodd" d="M1148.35 88.474L1133.49 103.802L1131.33 101.708L1146.19 86.3799L1148.35 88.474Z" fill="#592321"/><path fill-rule="evenodd" clip-rule="evenodd" d="M357.342 133.982C357.342 129.829 360.709 126.463 364.861 126.463H374.486C378.638 126.463 382.004 129.829 382.004 133.982V135.499C400.031 136.013 414.486 150.788 414.486 168.939V182.103C414.486 182.933 413.813 183.607 412.982 183.607H326.365C325.534 183.607 324.861 182.933 324.861 182.103V168.939C324.861 150.788 339.316 136.013 357.342 135.499V133.982ZM364.861 129.471C362.37 129.471 360.35 131.49 360.35 133.982V136.457C360.35 137.582 359.438 138.493 358.314 138.493C341.499 138.493 327.868 152.124 327.868 168.939V180.599H411.479V168.939C411.479 152.124 397.848 138.493 381.033 138.493C379.909 138.493 378.997 137.582 378.997 136.457V133.982C378.997 131.49 376.977 129.471 374.486 129.471H364.861Z" fill="#592321"/><path fill-rule="evenodd" clip-rule="evenodd" d="M357.343 133.982H360.35V171.276H357.343V133.982Z" fill="#592321"/><path fill-rule="evenodd" clip-rule="evenodd" d="M378.997 133.982H382.004V171.276H378.997V133.982Z" fill="#592321"/><path fill-rule="evenodd" clip-rule="evenodd" d="M347.117 160.448V138.794H350.124V160.448H347.117Z" fill="#592321"/><path fill-rule="evenodd" clip-rule="evenodd" d="M389.824 160.448V138.794H392.832V160.448H389.824Z" fill="#592321"/><path fill-rule="evenodd" clip-rule="evenodd" d="M324.781 183.607C323.829 183.607 323.056 184.379 323.056 185.332C323.056 186.077 323.535 186.739 324.244 186.971L336.235 190.902C337.294 191.249 338.401 191.426 339.515 191.426H399.832C400.946 191.426 402.053 191.249 403.112 190.902L415.103 186.971C415.811 186.739 416.291 186.077 416.291 185.332C416.291 184.379 415.518 183.607 414.565 183.607H324.781ZM320.049 185.332C320.049 182.718 322.168 180.599 324.781 180.599H414.565C417.179 180.599 419.298 182.718 419.298 185.332C419.298 187.377 417.984 189.192 416.04 189.829L404.049 193.76C402.688 194.207 401.265 194.434 399.832 194.434H339.515C338.082 194.434 336.659 194.207 335.298 193.76L323.307 189.829C321.363 189.192 320.049 187.377 320.049 185.332Z" fill="#592321"/><path fill-rule="evenodd" clip-rule="evenodd" d="M314.034 200.449C314.034 193.473 319.689 187.817 326.665 187.817V189.321H328.169V203.757C328.169 226.846 346.886 245.562 369.974 245.562C393.063 245.562 411.779 226.846 411.779 203.757V189.321H413.283V187.817C419.927 187.817 425.313 193.203 425.313 199.847V203.156C425.313 210.158 419.875 215.89 412.991 216.358C407.547 234.973 390.349 248.57 369.974 248.57C349.592 248.57 332.389 234.963 326.952 216.337C319.715 215.72 314.034 209.65 314.034 202.254V200.449ZM326.158 213.2C325.505 210.156 325.162 206.997 325.162 203.757V190.942C320.561 191.664 317.041 195.645 317.041 200.449V202.254C317.041 207.713 320.972 212.254 326.158 213.2ZM413.782 213.241C418.619 212.43 422.306 208.224 422.306 203.156V199.847C422.306 195.377 419.054 191.665 414.787 190.95V203.757C414.787 207.011 414.44 210.184 413.782 213.241Z" fill="#592321"/><path fill-rule="evenodd" clip-rule="evenodd" d="M1065.85 164.245H1139.83C1140.66 164.245 1141.34 164.918 1141.34 165.748V236.415C1141.34 237.245 1140.66 237.918 1139.83 237.918H1046.46C1033.37 237.918 1022.76 227.31 1022.76 214.223V208.344C1022.76 198.504 1030.74 190.527 1040.58 190.527H1052.22C1060.58 190.527 1067.36 197.306 1067.36 205.669V206.669C1067.36 214.479 1061.03 220.81 1053.22 220.81C1045.41 220.81 1039.08 214.479 1039.08 206.669V193.61C1031.6 194.364 1025.77 200.673 1025.77 208.344V214.223C1025.77 225.648 1035.03 234.911 1046.46 234.911H1138.33V167.252H1065.85V164.245ZM1042.08 193.535V206.669C1042.08 212.818 1047.07 217.802 1053.22 217.802C1059.36 217.802 1064.35 212.818 1064.35 206.669V205.669C1064.35 198.967 1058.92 193.535 1052.22 193.535H1042.08Z" fill="#592321"/><path fill-rule="evenodd" clip-rule="evenodd" d="M1040.58 141.217C1032.51 141.217 1025.77 148.316 1025.77 157.318V209.884H1022.76V157.318C1022.76 146.875 1030.63 138.21 1040.58 138.21H1053.22C1061.13 138.21 1067.36 145.099 1067.36 153.351V205.917H1064.35V153.351C1064.35 146.54 1059.26 141.217 1053.22 141.217H1040.58Z" fill="#592321"/><path fill-rule="evenodd" clip-rule="evenodd" d="M990.367 202.866C987.098 203.558 984.644 206.46 984.644 209.936V215.444C984.644 221.402 989.474 226.232 995.432 226.232H998.922C1002.95 226.232 1006.22 222.965 1006.22 218.934C1006.22 214.903 1002.95 211.635 998.922 211.635H991.871C991.04 211.635 990.367 210.962 990.367 210.132V202.866ZM991.871 199.702C986.219 199.702 981.636 204.284 981.636 209.936V237.158C981.636 237.989 982.31 238.662 983.14 238.662H997.559C1008.32 238.662 1017.04 229.941 1017.04 219.182C1017.04 208.423 1008.32 199.702 997.559 199.702H991.871ZM993.375 202.709V208.628H998.922C1004.61 208.628 1009.23 213.242 1009.23 218.934C1009.23 224.626 1004.61 229.24 998.922 229.24H995.432C991.065 229.24 987.172 227.211 984.644 224.044V235.655H997.559C1006.66 235.655 1014.03 228.28 1014.03 219.182C1014.03 210.084 1006.66 202.709 997.559 202.709H993.375Z" fill="#592321"/><path fill-rule="evenodd" clip-rule="evenodd" d="M981.636 152.979C981.636 144.932 987.707 138.21 995.432 138.21H999.338C1009.22 138.21 1017.04 146.819 1017.04 157.194V217.818H1014.03V157.194C1014.03 148.26 1007.35 141.217 999.338 141.217H995.432C989.58 141.217 984.644 146.373 984.644 152.979V213.603H981.636V152.979Z" fill="#592321"/><path fill-rule="evenodd" clip-rule="evenodd" d="M1435.27 1.02821C1435.52 0.513164 1436.04 0.186127 1436.61 0.186127H1460.78C1461.33 0.186127 1461.85 0.496077 1462.1 0.990227C1462.36 1.48438 1462.32 2.08066 1462 2.53715L1445.31 26.4058H1460.78C1461.38 26.4058 1461.92 26.7636 1462.15 27.3148C1462.39 27.8661 1462.27 28.5041 1461.85 28.9359L1425 67.271C1424.49 67.8023 1423.67 67.8817 1423.07 67.458C1422.47 67.0343 1422.26 66.234 1422.59 65.5732L1434.21 42.0523H1417.76C1417.24 42.0523 1416.76 41.7874 1416.49 41.3512C1416.22 40.915 1416.19 40.3688 1416.41 39.9057L1435.27 1.02821ZM1437.55 3.17477L1420.14 39.0636H1436.61C1437.13 39.0636 1437.61 39.3305 1437.88 39.7694C1438.15 40.2082 1438.18 40.7568 1437.95 41.22L1429.55 58.2351L1457.27 29.3945H1442.44C1441.88 29.3945 1441.37 29.0845 1441.11 28.5904C1440.86 28.0962 1440.9 27.5 1441.21 27.0435L1457.91 3.17477H1437.55Z" fill="#592321"/><path fill-rule="evenodd" clip-rule="evenodd" d="M1286.07 -24.7401C1286.07 -25.5707 1286.74 -26.2439 1287.58 -26.2439H1352.35C1353.18 -26.2439 1353.86 -25.5707 1353.86 -24.7401V61.8776C1353.86 62.7081 1353.18 63.3814 1352.35 63.3814H1287.58C1286.74 63.3814 1286.07 62.7081 1286.07 61.8776V-24.7401ZM1289.08 -23.2364V60.3738H1350.85V-23.2364H1289.08Z" fill="#592321"/><path fill-rule="evenodd" clip-rule="evenodd" d="M1331.83 -14.9213L1287.82 -23.0233L1288.36 -25.9811L1333.6 -17.6525C1334.32 -17.5211 1334.84 -16.8991 1334.84 -16.1735V52.3592C1334.84 53.0704 1334.34 53.6843 1333.64 53.8307L1288.4 63.3492L1287.78 60.4061L1331.83 51.1389V-14.9213Z" fill="#592321"/><path fill-rule="evenodd" clip-rule="evenodd" d="M1321.51 20.0725C1320.91 20.0725 1319.93 20.7927 1319.93 22.3761C1319.93 23.9595 1320.91 24.6797 1321.51 24.6797C1322.1 24.6797 1323.09 23.9595 1323.09 22.3761C1323.09 20.7927 1322.1 20.0725 1321.51 20.0725ZM1316.92 22.3761C1316.92 19.754 1318.69 17.0649 1321.51 17.0649C1324.32 17.0649 1326.1 19.754 1326.1 22.3761C1326.1 24.9982 1324.32 27.6873 1321.51 27.6873C1318.69 27.6873 1316.92 24.9982 1316.92 22.3761Z" fill="#592321"/><path fill-rule="evenodd" clip-rule="evenodd" d="M1364.62 128.358C1364.62 122.544 1369.33 117.831 1375.15 117.831H1411.24C1417.05 117.831 1421.76 122.544 1421.76 128.358V151.817C1421.76 152.647 1421.09 153.32 1420.26 153.32H1366.12C1365.29 153.32 1364.62 152.647 1364.62 151.817V128.358ZM1375.15 120.839C1370.99 120.839 1367.63 124.205 1367.63 128.358V150.313H1418.76V128.358C1418.76 124.205 1415.39 120.839 1411.24 120.839H1375.15Z" fill="#592321"/><path fill-rule="evenodd" clip-rule="evenodd" d="M1397.7 130.463C1397.7 129.633 1398.38 128.959 1399.21 128.959H1420.26V131.967H1400.71V139.486H1420.26V142.493H1399.21C1398.38 142.493 1397.7 141.82 1397.7 140.989V130.463Z" fill="#592321"/><path fill-rule="evenodd" clip-rule="evenodd" d="M1321.31 140.989C1321.31 140.159 1321.99 139.486 1322.82 139.486H1366.12C1366.95 139.486 1367.63 140.159 1367.63 140.989V151.817C1367.63 152.647 1366.95 153.32 1366.12 153.32H1322.82C1321.99 153.32 1321.31 152.647 1321.31 151.817V140.989ZM1324.32 142.493V150.313H1364.62V142.493H1324.32Z" fill="#592321"/><path fill-rule="evenodd" clip-rule="evenodd" d="M1325.82 174.975C1324.99 174.975 1324.32 175.648 1324.32 176.479V192.118C1324.32 192.949 1324.99 193.622 1325.82 193.622H1352.29C1353.12 193.622 1353.79 192.949 1353.79 192.118V176.479C1353.79 175.648 1353.12 174.975 1352.29 174.975H1325.82ZM1321.31 176.479C1321.31 173.987 1323.33 171.967 1325.82 171.967H1352.29C1354.78 171.967 1356.8 173.987 1356.8 176.479V192.118C1356.8 194.61 1354.78 196.629 1352.29 196.629H1325.82C1323.33 196.629 1321.31 194.61 1321.31 192.118V176.479Z" fill="#592321"/><path fill-rule="evenodd" clip-rule="evenodd" d="M1418.76 140.989C1418.76 140.159 1419.43 139.486 1420.26 139.486H1519.51C1525.32 139.486 1530.04 144.199 1530.04 150.012V151.817C1530.04 152.647 1529.36 153.32 1528.53 153.32H1420.26C1419.43 153.32 1418.76 152.647 1418.76 151.817V140.989ZM1421.76 142.493V150.313H1527.03V150.012C1527.03 145.86 1523.66 142.493 1519.51 142.493H1421.76Z" fill="#592321"/><path fill-rule="evenodd" clip-rule="evenodd" d="M1340.56 151.817L1340.56 173.471L1337.55 173.471L1337.55 151.817L1340.56 151.817Z" fill="#592321"/><path fill-rule="evenodd" clip-rule="evenodd" d="M1393.16 85.4625C1393.73 85.6942 1394.09 86.2436 1394.09 86.8534V119.034H1391.09V90.5127L1340.13 142.047L1337.99 139.932L1391.52 85.796C1391.95 85.3625 1392.6 85.2307 1393.16 85.4625Z" fill="#592321"/><path fill-rule="evenodd" clip-rule="evenodd" d="M1506.24 142.049L1391.95 88.2138L1393.23 85.493L1507.52 139.328L1506.24 142.049Z" fill="#592321"/><path fill-rule="evenodd" clip-rule="evenodd" d="M1375.45 151.817C1375.45 150.986 1376.12 150.313 1376.95 150.313H1409.43C1410.26 150.313 1410.94 150.986 1410.94 151.817V292.571C1410.94 293.401 1410.26 294.074 1409.43 294.074H1376.95C1376.12 294.074 1375.45 293.401 1375.45 292.571V151.817ZM1378.46 153.32V291.067H1407.93V153.32H1378.46Z" fill="#592321"/><path fill-rule="evenodd" clip-rule="evenodd" d="M1505.07 206.208V151.516H1508.08V206.554C1508.08 206.782 1508.03 207.007 1507.93 207.212L1503.31 216.721C1501.06 221.335 1504.42 226.705 1509.56 226.705C1513.39 226.705 1516.5 223.595 1516.5 219.758V217.382H1519.51V219.758C1519.51 225.256 1515.05 229.713 1509.56 229.713C1502.2 229.713 1497.39 222.018 1500.6 215.406L1505.07 206.208Z" fill="#592321"/><path fill-rule="evenodd" clip-rule="evenodd" d="M1404.22 171.967L1376.71 153.363L1378.4 150.872L1409.97 172.225C1410.52 172.596 1410.76 173.28 1410.57 173.912C1410.38 174.543 1409.79 174.975 1409.13 174.975H1382.41L1409.98 193.885C1410.53 194.258 1410.76 194.941 1410.57 195.571C1410.37 196.2 1409.79 196.629 1409.13 196.629H1382.35L1409.99 215.846C1410.53 216.221 1410.76 216.903 1410.57 217.531C1410.37 218.158 1409.79 218.585 1409.13 218.585H1382.41L1409.98 237.495C1410.53 237.868 1410.76 238.551 1410.57 239.18C1410.37 239.81 1409.79 240.239 1409.13 240.239H1382.46L1409.97 258.843C1410.52 259.213 1410.76 259.898 1410.57 260.529C1410.38 261.161 1409.79 261.593 1409.13 261.593H1382.41L1409.98 280.503C1410.53 280.876 1410.76 281.559 1410.57 282.189C1410.37 282.818 1409.79 283.247 1409.13 283.247H1377.55V280.24H1404.28L1376.7 261.329C1376.16 260.956 1375.92 260.273 1376.12 259.644C1376.31 259.014 1376.89 258.585 1377.55 258.585H1404.22L1376.71 239.981C1376.16 239.611 1375.92 238.927 1376.12 238.295C1376.31 237.663 1376.89 237.231 1377.55 237.231H1404.28L1376.7 218.321C1376.16 217.948 1375.92 217.265 1376.12 216.636C1376.31 216.006 1376.89 215.577 1377.55 215.577H1404.34L1376.69 196.36C1376.15 195.985 1375.92 195.303 1376.12 194.676C1376.31 194.049 1376.9 193.622 1377.55 193.622H1404.28L1376.7 174.711C1376.16 174.339 1375.92 173.655 1376.12 173.026C1376.31 172.396 1376.89 171.967 1377.55 171.967H1404.22Z" fill="#592321"/><path fill-rule="evenodd" clip-rule="evenodd" d="M100.852 236.298C100.852 235.468 101.526 234.795 102.356 234.795H198.598C199.429 234.795 200.102 235.468 200.102 236.298V269.382C200.102 270.212 199.429 270.885 198.598 270.885H102.356C101.526 270.885 100.852 270.212 100.852 269.382V236.298ZM103.86 237.802V267.878H197.094V237.802H103.86Z" fill="#592321"/><path fill-rule="evenodd" clip-rule="evenodd" d="M-8.02141 236.298C-8.02141 235.468 -7.34814 234.795 -6.51763 234.795H80.7016C81.5322 234.795 82.2054 235.468 82.2054 236.298V269.382C82.2054 270.212 81.5322 270.885 80.7016 270.885H-6.51763C-7.34814 270.885 -8.02141 270.212 -8.02141 269.382V236.298ZM-5.01385 237.802V267.878H79.1979V237.802H-5.01385Z" fill="#592321"/><path fill-rule="evenodd" clip-rule="evenodd" d="M14.2345 225.471C14.2345 224.641 14.9077 223.967 15.7382 223.967H57.8441C58.6746 223.967 59.3479 224.641 59.3479 225.471V236.298C59.3479 237.129 58.6746 237.802 57.8441 237.802H15.7382C14.9077 237.802 14.2345 237.129 14.2345 236.298V225.471ZM17.242 226.975V234.795H56.3403V226.975H17.242Z" fill="#592321"/><path fill-rule="evenodd" clip-rule="evenodd" d="M25.0617 214.644C25.0617 213.813 25.735 213.14 26.5655 213.14H47.0169C47.8474 213.14 48.5207 213.813 48.5207 214.644V225.471C48.5207 226.302 47.8474 226.975 47.0169 226.975H26.5655C25.735 226.975 25.0617 226.302 25.0617 225.471V214.644ZM28.0693 216.148V223.967H45.5131V216.148H28.0693Z" fill="#592321"/><path fill-rule="evenodd" clip-rule="evenodd" d="M21.1519 205.32C18.9925 205.32 17.242 207.071 17.242 209.23C17.242 211.39 18.9925 213.14 21.1519 213.14H52.4305C54.5898 213.14 56.3403 211.39 56.3403 209.23C56.3403 207.071 54.5898 205.32 52.4305 205.32H21.1519ZM14.2345 209.23C14.2345 205.41 17.3315 202.313 21.1519 202.313H52.4305C56.2509 202.313 59.3479 205.41 59.3479 209.23C59.3479 213.051 56.2509 216.148 52.4305 216.148H21.1519C17.3315 216.148 14.2345 213.051 14.2345 209.23Z" fill="#592321"/><path fill-rule="evenodd" clip-rule="evenodd" d="M275.892 117.199L275.892 182.162C275.892 182.561 275.734 182.944 275.452 183.226C275.17 183.508 274.787 183.666 274.388 183.666L241.305 183.666C240.475 183.666 239.801 182.993 239.801 182.162L239.801 117.199C239.801 116.8 239.96 116.418 240.242 116.136C240.524 115.854 240.906 115.695 241.305 115.695L274.388 115.695C275.219 115.695 275.892 116.368 275.892 117.199ZM272.885 118.703L242.809 118.703L242.809 180.658L272.885 180.658L272.885 118.703Z" fill="#592321"/><path fill-rule="evenodd" clip-rule="evenodd" d="M240.102 204.117C240.102 203.287 240.776 202.614 241.606 202.614H274.689C275.52 202.614 276.193 203.287 276.193 204.117V239.306C276.193 256.747 262.055 270.885 244.614 270.885H220.253C219.422 270.885 218.749 270.212 218.749 269.382V236.298C218.749 235.468 219.422 234.795 220.253 234.795H229.576C235.39 234.795 240.102 230.082 240.102 224.268V204.117ZM243.11 205.621V224.268C243.11 231.743 237.051 237.802 229.576 237.802H221.756V267.878H244.614C260.394 267.878 273.186 255.086 273.186 239.306V205.621H243.11Z" fill="#592321"/><path fill-rule="evenodd" clip-rule="evenodd" d="M197.094 225.471C197.094 224.641 197.768 223.967 198.598 223.967H220.253C221.083 223.967 221.756 224.641 221.756 225.471V279.607C221.756 280.438 221.083 281.111 220.253 281.111H198.598C197.768 281.111 197.094 280.438 197.094 279.607V225.471ZM200.102 226.975V278.103H218.749V226.975H200.102Z" fill="#592321"/><path fill-rule="evenodd" clip-rule="evenodd" d="M79.1978 225.471C79.1978 224.641 79.871 223.967 80.7016 223.967H102.356C103.187 223.967 103.86 224.641 103.86 225.471V279.607C103.86 280.438 103.187 281.111 102.356 281.111H80.7016C79.871 281.111 79.1978 280.438 79.1978 279.607V225.471ZM82.2053 226.975V278.103H100.852V226.975H82.2053Z" fill="#592321"/><path fill-rule="evenodd" clip-rule="evenodd" d="M285.216 180.658C286.046 180.658 286.72 181.332 286.72 182.162L286.72 203.817C286.72 204.647 286.046 205.32 285.216 205.32L231.08 205.32C230.249 205.32 229.576 204.647 229.576 203.817L229.576 182.162C229.576 181.332 230.249 180.658 231.08 180.658L285.216 180.658ZM283.712 183.666L232.583 183.666L232.583 202.313L283.712 202.313L283.712 183.666Z" fill="#592321"/><path fill-rule="evenodd" clip-rule="evenodd" d="M287.012 22.0975C287.077 22.1339 287.14 22.1752 287.199 22.221L299.772 31.9282C300.152 32.2215 300.369 32.6784 300.357 33.158L300.244 37.441L305.331 36.7781C305.727 36.7265 306.127 36.8347 306.444 37.079L315.168 43.8146C315.826 44.3221 315.947 45.2665 315.44 45.9239L303.68 61.156C303.172 61.8134 302.228 61.9349 301.57 61.4273L292.076 54.0974C291.693 53.8013 291.475 53.3386 291.492 52.8545L291.624 49.0881L284.936 53.4701C284.4 53.8214 283.7 53.7943 283.193 53.4026L267.027 40.9219C266.37 40.4144 266.248 39.47 266.756 38.8127L274.947 28.2034L261.254 17.6323C260.734 17.2309 260.535 16.5384 260.762 15.9221C260.989 15.3057 261.59 14.9081 262.246 14.9399L262.173 16.442C262.246 14.9399 262.246 14.9399 262.246 14.9399L262.254 14.9403L262.274 14.9413L262.347 14.9452C262.41 14.9486 262.503 14.9538 262.622 14.9609C262.86 14.9752 263.204 14.9972 263.631 15.0286C264.486 15.0915 265.679 15.192 267.034 15.3431C269.721 15.6425 273.141 16.1503 275.833 16.9892C278.154 17.7124 280.966 19.004 283.151 20.0847C284.254 20.6303 285.216 21.132 285.903 21.4975C286.247 21.6804 286.522 21.8294 286.713 21.9332C286.808 21.9851 286.882 22.0257 286.932 22.0536L286.99 22.0856L287.012 22.0975C287.012 22.0976 287.012 22.0975 286.28 23.4113L287.012 22.0975ZM285.452 24.6719C285.407 24.6471 285.347 24.614 285.272 24.5735C285.09 24.4742 284.824 24.3302 284.491 24.1528C283.823 23.7977 282.888 23.31 281.817 22.7804C279.655 21.7109 277.02 20.5093 274.939 19.8606C272.667 19.1526 269.7 18.6818 267.149 18.3833L277.975 26.7418C278.632 27.2493 278.754 28.1937 278.246 28.8511L270.056 39.4603L284.183 50.3677L292.404 44.9812C292.874 44.6733 293.477 44.6531 293.967 44.9288C294.456 45.2045 294.751 45.7302 294.731 46.2917L294.525 52.1884L302.218 58.1277L312.14 45.2762L305.1 39.8411L298.889 40.6505C298.453 40.7073 298.014 40.5705 297.687 40.2762C297.361 39.9818 297.18 39.5593 297.191 39.1198L297.33 33.8423L285.452 24.6719Z" fill="#592321"/><path fill-rule="evenodd" clip-rule="evenodd" d="M270.451 41.6654C270.958 41.008 271.903 40.8865 272.56 41.3941L281.849 48.5655C282.506 49.073 282.628 50.0174 282.12 50.6748L253.833 87.3142C251.345 90.5366 246.716 91.1321 243.494 88.6443C240.271 86.1564 239.676 81.5273 242.163 78.3048L270.451 41.6654ZM271.912 44.6937L244.544 80.1428C243.071 82.0504 243.424 84.7908 245.331 86.2636C247.239 87.7364 249.98 87.3839 251.452 85.4763L278.821 50.0271L271.912 44.6937Z" fill="#592321"/><path fill-rule="evenodd" clip-rule="evenodd" d="M1279.77 190.758L1279.77 211.209C1279.77 215.361 1276.4 218.728 1272.25 218.728L1197.66 218.728C1193.51 218.728 1190.14 215.361 1190.14 211.209L1190.14 190.758C1190.14 186.605 1193.51 183.239 1197.66 183.239L1272.25 183.239C1276.4 183.239 1279.77 186.605 1279.77 190.758ZM1276.76 211.209L1276.76 190.758C1276.76 188.266 1274.74 186.246 1272.25 186.246L1197.66 186.246C1195.17 186.246 1193.15 188.266 1193.15 190.758L1193.15 211.209C1193.15 213.7 1195.17 215.72 1197.66 215.72L1272.25 215.72C1274.74 215.72 1276.76 213.7 1276.76 211.209Z" fill="#592321"/><path fill-rule="evenodd" clip-rule="evenodd" d="M1276.76 196.171C1276.76 195.341 1277.43 194.667 1278.26 194.667H1289.09C1289.92 194.667 1290.59 195.341 1290.59 196.171V206.397C1290.59 207.227 1289.92 207.901 1289.09 207.901H1278.26C1277.43 207.901 1276.76 207.227 1276.76 206.397V196.171ZM1279.77 197.675V204.893H1287.59V197.675H1279.77Z" fill="#592321"/><path fill-rule="evenodd" clip-rule="evenodd" d="M1226.23 271.962C1226.23 271.131 1226.9 270.458 1227.73 270.458H1242.17C1243 270.458 1243.67 271.131 1243.67 271.962V325.496C1243.67 326.327 1243 327 1242.17 327H1227.73C1226.9 327 1226.23 326.327 1226.23 325.496V271.962ZM1229.24 273.465V323.992H1240.67V273.465H1229.24Z" fill="#592321"/><path fill-rule="evenodd" clip-rule="evenodd" d="M1290.89 202.788H1288.79V199.78H1290.89C1296.71 199.78 1301.42 204.493 1301.42 210.307V221.623C1301.42 226.112 1298.57 230.106 1294.33 231.572L1241.22 249.929C1238.19 250.977 1236.16 253.83 1236.16 257.036V271.962H1233.15V257.036C1233.15 252.548 1235.99 248.553 1240.24 247.087L1293.35 228.73C1296.38 227.682 1298.41 224.829 1298.41 221.623V210.307C1298.41 206.154 1295.05 202.788 1290.89 202.788Z" fill="#592321"/><path fill-rule="evenodd" clip-rule="evenodd" d="M1222.62 271.962C1222.62 271.131 1223.3 270.458 1224.13 270.458H1245.78C1246.61 270.458 1247.28 271.131 1247.28 271.962C1247.28 272.792 1246.61 273.465 1245.78 273.465H1224.13C1223.3 273.465 1222.62 272.792 1222.62 271.962Z" fill="#592321"/><path fill-rule="evenodd" clip-rule="evenodd" d="M1190.14 195.57C1190.14 194.739 1190.81 194.066 1191.64 194.066H1195.4C1199.97 194.066 1203.67 197.769 1203.67 202.337C1203.67 203.748 1204.82 204.893 1206.23 204.893H1210.14C1210.89 204.893 1211.49 204.287 1211.49 203.54C1211.49 201.131 1213.45 199.179 1215.86 199.179H1221.5C1221.95 199.179 1222.32 198.811 1222.32 198.358C1222.32 195.988 1224.24 194.066 1226.61 194.066H1229.73C1233.28 194.066 1236.16 196.943 1236.16 200.491V200.983C1236.16 203.143 1237.91 204.893 1240.07 204.893H1250.89C1253.05 204.893 1254.8 203.143 1254.8 200.983C1254.8 197.163 1257.9 194.066 1261.72 194.066H1264.28C1267.02 194.066 1269.24 196.288 1269.24 199.028C1269.24 200.108 1270.11 200.983 1271.19 200.983H1278.26C1279.09 200.983 1279.77 201.656 1279.77 202.487C1279.77 203.318 1279.09 203.991 1278.26 203.991H1271.19C1268.45 203.991 1266.23 201.769 1266.23 199.028C1266.23 197.949 1265.36 197.073 1264.28 197.073H1261.72C1259.56 197.073 1257.81 198.824 1257.81 200.983C1257.81 204.804 1254.71 207.901 1250.89 207.901H1240.07C1236.25 207.901 1233.15 204.804 1233.15 200.983V200.491C1233.15 198.604 1231.62 197.073 1229.73 197.073H1226.61C1225.9 197.073 1225.33 197.649 1225.33 198.358C1225.33 200.472 1223.62 202.186 1221.5 202.186H1215.86C1215.11 202.186 1214.5 202.792 1214.5 203.54C1214.5 205.948 1212.55 207.901 1210.14 207.901H1206.23C1203.16 207.901 1200.67 205.41 1200.67 202.337C1200.67 199.43 1198.31 197.073 1195.4 197.073H1191.64C1190.81 197.073 1190.14 196.4 1190.14 195.57Z" fill="#592321"/></svg>