<svg xmlns="http://www.w3.org/2000/svg" xmlns:xlink="http://www.w3.org/1999/xlink" width="40" zoomAndPan="magnify" viewBox="0 0 30 30.000001" height="40" preserveAspectRatio="xMidYMid meet" version="1.0"><defs><clipPath id="id1"><path d="M 2.550781 5.53125 L 27.230469 5.53125 L 27.230469 23.675781 L 2.550781 23.675781 Z M 2.550781 5.53125 " clip-rule="nonzero"/></clipPath></defs><g clip-path="url(#id1)"><path fill="rgb(93.328857%, 93.328857%, 93.328857%)" d="M 27.21875 20.882812 C 27.21875 22.425781 25.992188 23.675781 24.480469 23.675781 L 5.300781 23.675781 C 3.789062 23.675781 2.5625 22.425781 2.5625 20.882812 L 2.5625 8.324219 C 2.5625 6.78125 3.789062 5.53125 5.300781 5.53125 L 24.480469 5.53125 C 25.992188 5.53125 27.21875 6.78125 27.21875 8.324219 Z M 27.21875 20.882812 " fill-opacity="1" fill-rule="nonzero"/></g><path fill="rgb(77.648926%, 4.708862%, 18.818665%)" d="M 17.246094 11.171875 C 15.390625 9.847656 12.828125 10.308594 11.523438 12.203125 C 10.875 13.148438 11.097656 14.453125 12.027344 15.117188 C 12.957031 15.78125 14.238281 15.550781 14.890625 14.605469 C 15.542969 13.65625 16.824219 13.425781 17.753906 14.089844 C 18.683594 14.753906 18.910156 16.058594 18.257812 17.003906 C 19.558594 15.113281 19.105469 12.5 17.246094 11.171875 Z M 17.246094 11.171875 " fill-opacity="1" fill-rule="nonzero"/><path fill="rgb(0%, 20.388794%, 47.059631%)" d="M 17.753906 14.089844 C 16.824219 13.425781 15.542969 13.65625 14.890625 14.605469 C 14.238281 15.550781 12.957031 15.78125 12.027344 15.117188 C 11.097656 14.453125 10.875 13.148438 11.523438 12.203125 C 10.222656 14.097656 10.675781 16.707031 12.535156 18.03125 C 14.394531 19.359375 16.953125 18.898438 18.257812 17.003906 C 18.90625 16.058594 18.683594 14.753906 17.753906 14.089844 Z M 17.753906 14.089844 " fill-opacity="1" fill-rule="nonzero"/><path fill="rgb(16.079712%, 18.429565%, 19.999695%)" d="M 19.230469 19.886719 L 20.550781 18.285156 L 21.074219 18.734375 L 19.753906 20.335938 Z M 20.988281 17.75 L 22.308594 16.148438 L 22.835938 16.597656 L 21.515625 18.199219 Z M 20.277344 20.785156 L 21.597656 19.183594 L 22.125 19.632812 L 20.804688 21.234375 Z M 22.039062 18.648438 L 23.363281 17.042969 L 23.886719 17.492188 L 22.566406 19.097656 Z M 21.328125 21.683594 L 22.648438 20.082031 L 23.171875 20.53125 L 21.851562 22.132812 Z M 23.089844 19.546875 L 24.40625 17.941406 L 24.933594 18.390625 L 23.613281 19.996094 Z M 23.089844 9.660156 L 23.617188 9.214844 L 24.9375 10.816406 L 24.414062 11.265625 Z M 21.328125 7.523438 L 21.855469 7.074219 L 23.175781 8.679688 L 22.648438 9.125 Z M 20.277344 8.421875 L 20.804688 7.972656 L 23.886719 11.714844 L 23.363281 12.164062 Z M 19.230469 9.316406 L 19.753906 8.867188 L 21.074219 10.472656 L 20.550781 10.921875 Z M 20.988281 11.457031 L 21.515625 11.007812 L 22.835938 12.609375 L 22.3125 13.058594 Z M 6.945312 16.59375 L 7.46875 16.148438 L 10.550781 19.890625 L 10.027344 20.339844 Z M 5.898438 17.492188 L 6.421875 17.046875 L 7.742188 18.648438 L 7.21875 19.097656 Z M 7.65625 19.632812 L 8.179688 19.183594 L 9.503906 20.785156 L 8.976562 21.234375 Z M 4.847656 18.390625 L 5.371094 17.941406 L 8.453125 21.683594 L 7.929688 22.132812 Z M 4.847656 10.816406 L 7.925781 7.074219 L 8.453125 7.523438 L 5.371094 11.265625 Z M 5.894531 11.714844 L 8.976562 7.972656 L 9.503906 8.421875 L 6.421875 12.164062 Z M 6.945312 12.609375 L 10.027344 8.867188 L 10.550781 9.316406 L 7.46875 13.058594 Z M 6.945312 12.609375 " fill-opacity="1" fill-rule="nonzero"/></svg>